<svg width="24" height="24" viewBox="0 0 24 24" fill="none" xmlns="http://www.w3.org/2000/svg">
<path d="M22.7094 4.70994C22.6164 4.80367 22.5058 4.87806 22.384 4.92883C22.2621 4.9796 22.1314 5.00574 21.9994 5.00574C21.8674 5.00574 21.7367 4.9796 21.6148 4.92883C21.493 4.87806 21.3824 4.80367 21.2894 4.70994L20.9994 4.40994L14.8994 10.5199L11.9994 21.2599C11.9408 21.4781 11.8101 21.67 11.6285 21.8044C11.4469 21.9387 11.2252 22.0077 10.9994 21.9999C10.7898 22.0005 10.5853 21.9351 10.4148 21.8131C10.2443 21.6911 10.1165 21.5186 10.0494 21.3199L8.20941 15.7899L2.67941 13.9999C2.47243 13.9304 2.29391 13.7949 2.17112 13.6144C2.04833 13.4338 1.98802 13.218 1.99941 12.9999C1.99167 12.7742 2.06061 12.5524 2.19498 12.3709C2.32935 12.1893 2.52124 12.0585 2.73941 11.9999L13.4794 9.09994L19.5894 2.99994L19.2894 2.70994C19.1011 2.52164 18.9953 2.26624 18.9953 1.99994C18.9953 1.73364 19.1011 1.47824 19.2894 1.28994C19.4777 1.10164 19.7331 0.99585 19.9994 0.99585C20.2657 0.99585 20.5211 1.10164 20.7094 1.28994L22.7094 3.28994C22.8031 3.3829 22.8775 3.49351 22.9283 3.61536C22.9791 3.73722 23.0052 3.86793 23.0052 3.99994C23.0052 4.13195 22.9791 4.26266 22.9283 4.38452C22.8775 4.50638 22.8031 4.61698 22.7094 4.70994Z" fill="#666666"/>
</svg>
