<svg width="24" height="24" viewBox="0 0 24 24" fill="none" xmlns="http://www.w3.org/2000/svg">
<path d="M20.0625 6.90002H3.9375C3 6.90002 2.25 7.65002 2.25 8.58752V15.45C2.25 16.3875 3 17.1375 3.9375 17.1375H20.0625C21 17.1375 21.75 16.3875 21.75 15.45V13.725C21.75 13.5375 21.6 13.35 21.4125 13.35C20.7 13.275 20.2125 12.7125 20.2125 12.0375C20.2125 11.3625 20.7375 10.8 21.4125 10.725C21.6 10.725 21.75 10.5375 21.75 10.35V8.62502C21.75 7.65002 21 6.90002 20.0625 6.90002ZM21 10.0125C20.1 10.2375 19.425 11.0625 19.425 12C19.425 12.9375 20.0625 13.7625 21 13.9875V15.4125C21 15.9375 20.5875 16.35 20.0625 16.35H16.95V15.4125C16.95 15.1875 16.8 15.0375 16.575 15.0375C16.35 15.0375 16.2 15.1875 16.2 15.4125V16.35H3.9375C3.4125 16.35 3 15.9375 3 15.4125V8.58752C3 8.06252 3.4125 7.65002 3.9375 7.65002H16.2V8.58752C16.2 8.81252 16.35 8.96252 16.575 8.96252C16.8 8.96252 16.95 8.81252 16.95 8.58752V7.65002H20.0625C20.5875 7.65002 21 8.06252 21 8.58752V10.0125Z" fill="#666666"/>
<path d="M16.5742 10.5C16.3492 10.5 16.1992 10.65 16.1992 10.875V13.125C16.1992 13.35 16.3492 13.5 16.5742 13.5C16.7992 13.5 16.9492 13.35 16.9492 13.125V10.875C16.9492 10.65 16.7617 10.5 16.5742 10.5Z" fill="#666666"/>
</svg>
